<?xml version="1.0" encoding="UTF-8"?>
<svg width="31px" height="25px" viewBox="0 0 31 25" version="1.1" xmlns="http://www.w3.org/2000/svg" xmlns:xlink="http://www.w3.org/1999/xlink">
    <!-- Generator: Sketch 49.3 (51167) - http://www.bohemiancoding.com/sketch -->
    <title>Imported Layers 4</title>
    <desc>Created with Sketch.</desc>
    <defs></defs>
    <g id="Page-1" stroke="none" stroke-width="1" fill="none" fill-rule="evenodd">
        <g id="Mobile" transform="translate(-270.000000, -4733.000000)" fill="#5CCFE6">
            <path d="M297.406246,4740.03866 C297.406246,4748.37395 291.109733,4757.98191 279.594936,4757.98191 C276.059041,4757.98191 272.770221,4756.93879 270,4755.14719 C270.489787,4755.20524 270.988305,4755.2369 271.493807,4755.2369 C274.425544,4755.2369 277.125048,4754.22808 279.266665,4752.53763 C276.527874,4752.4875 274.216883,4750.66336 273.419778,4748.15934 C273.803052,4748.2341 274.195056,4748.26928 274.59841,4748.26928 C275.168519,4748.26928 275.721166,4748.19013 276.246749,4748.04852 C273.382237,4747.47155 271.224904,4744.92268 271.224904,4741.86456 C271.224904,4741.8373 271.224904,4741.81531 271.225777,4741.78804 C272.069154,4742.25859 273.034759,4742.54532 274.060605,4742.57258 C272.382582,4741.44415 271.276415,4739.51271 271.276415,4737.3262 C271.276415,4736.1705 271.584605,4735.08604 272.124156,4734.15726 C275.210426,4737.97089 279.822805,4740.48195 285.027119,4740.74492 C284.91886,4740.28317 284.863857,4739.80207 284.863857,4739.30514 C284.863857,4735.8266 287.667255,4733.00244 291.123702,4733.00244 C292.924826,4733.00244 294.551338,4733.76675 295.694174,4734.99369 C297.118136,4734.7096 298.459157,4734.18629 299.667473,4733.46155 C299.200385,4734.93652 298.208589,4736.1705 296.915586,4736.95064 C298.182397,4736.802 299.388093,4736.4625 300.510849,4735.95853 C299.670092,4737.22154 298.61107,4738.3315 297.387912,4739.22246 C297.399261,4739.49248 297.406246,4739.76601 297.406246,4740.03866 Z" id="Imported-Layers-4"></path>
        </g>
    </g>
</svg>