<?xml version="1.0" encoding="UTF-8"?>
<svg width="18px" height="20px" viewBox="0 0 18 20" version="1.1" xmlns="http://www.w3.org/2000/svg" xmlns:xlink="http://www.w3.org/1999/xlink">
    <!-- Generator: Sketch 49.3 (51167) - http://www.bohemiancoding.com/sketch -->
    <title>Shape</title>
    <desc>Created with Sketch.</desc>
    <defs></defs>
    <g id="Page-1" stroke="none" stroke-width="1" fill="none" fill-rule="evenodd" opacity="0.200000003">
        <g id="Mobile" transform="translate(-300.000000, -4267.000000)" fill="#5CCFE6">
            <path d="M313.631062,4271.62584 C313.631062,4274.1805 311.557885,4277.70648 309,4277.70648 C306.442115,4277.70648 304.36872,4274.18072 304.36872,4271.62584 C304.36872,4269.07096 306.442115,4267 309,4267 C311.557885,4267 313.631062,4269.07118 313.631062,4271.62584 Z M312.501169,4277.25983 C315.489105,4278.47866 317.571429,4281.01744 317.571429,4282.74716 C317.571429,4285.09607 313.733839,4287 309,4287 C304.266161,4287 300.428571,4285.09586 300.428571,4282.74716 C300.428571,4281.01744 302.511112,4278.47888 305.498831,4277.25983 C306.433405,4278.45887 307.65802,4279.30643 309,4279.30643 C310.341763,4279.30643 311.566595,4278.45887 312.501169,4277.25983 Z" id="Shape"></path>
        </g>
    </g>
</svg>