<?xml version="1.0" encoding="UTF-8"?>
<svg width="29px" height="29px" viewBox="0 0 29 29" version="1.1" xmlns="http://www.w3.org/2000/svg" xmlns:xlink="http://www.w3.org/1999/xlink">
    <!-- Generator: Sketch 49.3 (51167) - http://www.bohemiancoding.com/sketch -->
    <title>Fill 5</title>
    <desc>Created with Sketch.</desc>
    <defs></defs>
    <g id="Page-1" stroke="none" stroke-width="1" fill="none" fill-rule="evenodd">
        <g id="Mobile" transform="translate(-134.000000, -4731.000000)" fill="#5CCFE6">
            <path d="M162.970331,4759.62157 L156.967591,4759.62157 L156.967591,4750.32481 C156.967591,4748.10827 156.929364,4745.25637 153.84873,4745.25637 C150.724247,4745.25637 150.247536,4747.67208 150.247536,4750.1668 L150.247536,4759.62157 L144.251542,4759.62157 L144.251542,4740.50506 L150.005807,4740.50506 L150.005807,4743.11884 L150.089007,4743.11884 C150.889522,4741.61556 152.848086,4740.03104 155.767943,4740.03104 C161.847136,4740.03104 162.970331,4743.98899 162.970331,4749.13754 L162.970331,4759.62157 Z M137.483141,4737.89351 C135.554933,4737.89351 134,4736.35017 134,4734.44742 C134,4732.54578 135.554933,4731.00244 137.483141,4731.00244 C139.403478,4731.00244 140.961784,4732.54578 140.961784,4734.44742 C140.961784,4736.35017 139.403478,4737.89351 137.483141,4737.89351 Z M134.476711,4740.50506 L140.486197,4740.50506 L140.486197,4759.62157 L134.476711,4759.62157 L134.476711,4740.50506 Z" id="Fill-5"></path>
        </g>
    </g>
</svg>